<?xml version="1.0" standalone="no"?><!DOCTYPE svg PUBLIC "-//W3C//DTD SVG 1.1//EN" "http://www.w3.org/Graphics/SVG/1.1/DTD/svg11.dtd"><svg t="1562250969728" class="icon" viewBox="0 0 1024 1024" version="1.1" xmlns="http://www.w3.org/2000/svg" p-id="5711" xmlns:xlink="http://www.w3.org/1999/xlink" width="16" height="16"><defs><style type="text/css"></style></defs><path d="M206.912 960l-128 0 0-149.376 128-102.976L206.912 960zM457.6 656 392.704 580.352 329.6 631.616 329.6 960l128 0L457.6 656zM708.224 605.632l-128 119.36L580.224 960l128 0L708.224 605.632zM958.912 379.968l-128 121.024L830.912 960l128 0L958.912 379.968zM942.912 256c11.328-13.568 9.472-33.728-4.032-45.056-13.568-11.264-33.664-9.472-45.056 4.032l-336 319.168L391.616 370.88 76.8 629.76c-14.144 10.624-17.024 30.656-6.464 44.736 10.688 14.144 30.656 17.024 44.8 6.528l274.304-224.64 169.408 167.68L942.912 256zM1009.344 323.328l0.064-177.024c-0.064-9.344-3.328-17.088-9.472-23.36-6.4-6.272-14.08-9.344-23.232-9.408l-177.152 0.064c-9.28-0.064-17.024 3.2-23.296 9.344C769.92 129.28 766.72 136.96 766.656 146.368c0.064 9.28 3.264 16.96 9.472 23.232l177.088 177.024c6.4 6.4 14.08 9.536 23.232 9.536 9.344-0.064 17.216-3.2 23.36-9.536C1006.08 340.352 1009.344 332.672 1009.344 323.328z" p-id="5712" fill="#707070"></path></svg>