<?xml version="1.0" standalone="no"?><!DOCTYPE svg PUBLIC "-//W3C//DTD SVG 1.1//EN" "http://www.w3.org/Graphics/SVG/1.1/DTD/svg11.dtd"><svg t="1562643091777" class="icon" viewBox="0 0 1024 1024" version="1.1" xmlns="http://www.w3.org/2000/svg" p-id="5203" xmlns:xlink="http://www.w3.org/1999/xlink" width="16" height="16"><defs><style type="text/css"></style></defs><path d="M139.316487 958.258717 64.860728 958.258717l0-74.455759L64.860728 139.29551 64.860728 83.45369 64.860728 64.839751 883.822912 64.839751l74.456782 0 0 74.455759 0 781.762957 0 37.201274L139.316487 958.25974 139.316487 958.258717zM921.025209 102.042047 102.062002 102.042047l0 819.016419 818.963207 0L921.025209 102.042047 921.025209 102.042047zM502.26273 624.806205l139.605571-139.592268 199.227484 199.292975-26.282596 26.333762L641.868301 537.883507 528.544303 651.14099l163.665547 163.665547-26.281573 26.362414L418.526607 593.699744l-210.201419 210.187093-26.333762-26.333762 236.535181-236.495272L502.26273 624.806205 502.26273 624.806205zM641.868301 399.838478c-51.452859 0-93.097328-41.630143-93.097328-93.02979s41.643446-93.069699 93.097328-93.069699c51.399647 0 93.043093 41.670052 93.043093 93.069699S693.267948 399.838478 641.868301 399.838478L641.868301 399.838478zM641.868301 250.939239c-30.883381 0-55.841819 25.012673-55.841819 55.869449 0 30.829146 24.959461 55.841819 55.841819 55.841819 30.854728 0 55.815213-25.012673 55.815213-55.841819C697.683515 275.952936 672.72303 250.939239 641.868301 250.939239L641.868301 250.939239z" p-id="5204" fill="#707070"></path></svg>